<svg width="32" height="32" viewBox="0 0 32 32" fill="none" xmlns="http://www.w3.org/2000/svg">
<rect width="32" height="32" rx="16" fill="url(#paint0_linear_450_40)" fill-opacity="0.34"/>
<path d="M16.7798 3.01049C17.4198 2.9675 18.2232 3.06631 18.8604 3.1313C19.3245 3.17863 19.8313 3.19094 20.2876 3.24624C21.5835 3.3978 22.8531 3.72229 24.0634 4.21115C24.4096 4.35347 24.7585 4.48104 25.0634 4.69416C25.7657 5.18458 26.111 6.18909 25.5701 6.92759C25.3684 7.20345 25.1213 7.22562 24.8135 7.27572C24.337 6.85463 24.1258 6.75746 23.5449 6.52152C23.2143 6.38719 22.8983 6.16457 22.5426 6.02734C21.8582 5.76336 21.2109 5.61223 20.492 5.48401C18.5741 5.02724 16.406 4.96229 14.5108 5.54737C13.993 5.70728 13.1981 5.96722 12.6953 6.15945C10.9794 6.81546 9.25613 7.83345 7.98953 9.17594C7.69494 9.48816 7.51752 9.91251 7.27734 10.2656C6.97101 10.7077 6.68671 11.0775 6.42255 11.5486C6.0317 12.2455 5.95418 12.8422 5.85763 13.6184C5.83273 13.8184 5.70272 14.1517 5.68788 14.3236C5.6473 14.7933 5.57222 15.6322 5.62081 16.0856C5.65224 16.379 5.83482 16.9065 5.88409 17.2555C5.96148 17.8045 6.01693 18.3425 6.17301 18.8671C6.40251 19.6377 6.87471 20.5064 7.32733 21.1654C7.49906 21.4155 7.72872 21.8284 7.91077 22.0543C8.64102 22.9611 9.48699 23.848 10.4559 24.4982C10.9798 24.8498 11.6548 25.1791 12.2052 25.5072C12.5416 25.7076 12.9674 25.892 13.3203 26.0726C13.5076 26.1685 13.9607 26.4084 14.1219 26.462C14.606 26.6226 15.2039 26.6908 15.6891 26.7809C17.1008 27.0437 18.8314 26.9686 20.2115 26.492C21.3183 26.1094 23.2592 24.5165 24.064 23.6257C24.4178 23.234 24.9944 22.321 25.2362 21.8542C25.6215 21.1102 25.9004 20.0778 26.0023 19.2447C26.0309 19.0107 26.1234 18.6918 26.1393 18.4587C26.1543 18.3069 26.0648 17.9906 26.0846 17.8512C26.2116 16.9702 25.9317 16.2521 25.6297 15.4425C25.5571 15.2473 25.4969 14.9392 25.4328 14.7186C25.1702 13.814 24.6602 13.1047 24.0188 12.4312C23.8648 12.2658 23.5433 11.954 23.4161 11.7882C23.1235 11.4076 22.9803 11.0186 22.5745 10.7014C22.0922 10.3245 21.4836 10.0548 20.9489 9.74574C20.6154 9.55292 20.2125 9.52433 19.843 9.44276C18.8388 9.22108 17.8655 9.2451 16.85 9.34959C16.6998 9.36503 16.3422 9.51228 16.1589 9.5428C15.5864 9.63812 15.1013 9.73138 14.5499 9.91013C13.6828 10.1539 13.1251 10.6271 12.4822 11.2149C12.019 11.6383 11.7452 11.9275 11.419 12.4763C11.2705 12.7262 10.8012 13.2358 10.7021 13.5164C10.5527 13.9394 10.45 14.2307 10.19 14.615C9.98608 14.9421 10.0042 15.6586 10.0145 16.0441C10.0269 16.5083 10.0438 17.0756 10.1397 17.5359C10.3129 18.1368 10.9306 18.8093 11.2893 19.3165C11.5693 19.7128 11.7403 20.1192 11.8986 20.5739C12.1591 20.7378 12.5343 21.0593 12.7859 21.2627C13.4397 21.7908 14.6158 22.4189 15.4703 22.4848C17.6147 22.6686 19.0664 21.9674 20.6599 20.5863C21.9282 19.4869 22.2012 18.4042 22.3714 16.7802C22.4443 15.8404 22.2129 14.9203 21.6135 14.1807C21.3857 13.8997 20.0429 12.7685 19.744 12.7574C19.1702 12.7361 18.6344 12.5055 18.1225 12.4657C17.2788 12.4002 16.144 12.6464 15.5281 13.273C14.8866 13.9288 13.885 14.8824 13.8037 15.8391C13.676 17.3417 15.2588 18.7773 16.6981 18.8054C17.7525 18.8259 19.1734 18.4091 19.1968 17.1259C19.2032 16.773 19.1415 16.5906 18.907 16.3409C18.0874 16.1306 18.0171 16.7051 17.9598 17.3756C17.6553 17.6338 17.4952 17.5969 17.1249 17.5933C16.1957 17.5842 15.9335 17.2235 15.6305 16.4218C15.8702 15.4833 15.7435 14.6577 16.6687 14.0906C18.1314 13.1937 19.7577 13.7405 20.6398 15.1566C21.1914 16.0425 21.1387 16.6268 20.9056 17.576C20.8842 17.6802 20.8711 17.8176 20.8578 17.9256C20.5109 18.3454 20.3583 18.8736 20.0719 19.2594C19.5548 19.956 19.1854 20.3014 18.339 20.5485C18.0206 20.6412 17.769 20.7381 17.4152 20.7815C16.3713 20.9105 15.061 20.7185 14.2211 20.0438C14.1069 19.9521 13.2677 19.2336 13.2158 19.1569C12.7862 18.5243 12.2595 17.3688 12.1636 16.6085C12.0924 16.0445 12.1354 15.7947 12.1534 15.3097C12.1948 14.193 12.6209 13.4117 13.3397 12.5856C13.4575 12.4502 13.6164 12.1821 13.7416 12.0336C14.4262 11.2214 16.0189 10.7092 17.0298 10.5899C18.6969 10.3628 20.3062 10.6536 21.6392 11.743C22.0479 12.077 22.6747 12.6693 23.0412 13.0581C23.4945 13.5393 23.9234 14.5019 24.1034 15.1292C24.1945 15.4474 24.2163 15.9119 24.2736 16.2452C24.3605 16.9666 24.3413 18.539 24.1031 19.1827C23.8844 19.7735 23.0887 20.9226 22.6952 21.453C22.3633 21.9002 21.8133 22.2638 21.3388 22.556C20.9974 22.7659 20.4461 23.1981 20.1226 23.3671C19.1904 23.8538 17.7294 24.3086 16.694 24.4385C15.5965 24.5384 14.317 24.5201 13.2732 24.1156C12.5896 23.8506 11.7211 23.4115 11.1631 22.9438C10.7822 22.6249 10.3424 22.2152 10.0531 21.8127C9.93189 21.6443 9.84702 21.3123 9.71314 21.137C9.60106 20.9705 9.3561 20.7786 9.29147 20.6634C8.77233 19.721 8.21447 18.5775 8.1116 17.4948C8.02015 16.5321 7.96014 15.6417 8.16208 14.6929C8.22684 14.3887 8.20783 13.9295 8.29258 13.6432C8.57629 12.6845 8.91308 11.6515 9.57489 10.8841C10.0785 10.3032 10.6591 9.89084 11.2951 9.48056C11.5784 9.29776 11.8154 9.09019 12.1096 8.90997C13.7803 7.89495 15.6621 7.28032 17.6084 7.11385C18.6997 7.02127 20.3586 7.39389 21.4472 7.66714C21.9854 7.80231 22.8687 8.48656 23.4685 8.65251C23.6943 8.71496 24.4916 9.28914 24.711 9.48878C26.3375 10.9683 27.7125 12.7491 28.2084 14.9369C28.3386 15.4079 28.2781 16.0458 28.3614 16.4949C28.623 17.9061 28.4864 19.3267 28.1837 20.7225C28.074 21.2274 27.6347 22.0608 27.4453 22.5811C27.3304 22.8961 26.8413 23.4625 26.686 23.7899C26.2744 24.5083 25.7524 25.1919 25.2229 25.8264C25.0022 26.0905 24.6107 26.3539 24.3325 26.5837C23.323 27.4181 22.3424 28.0167 21.0716 28.3657C20.6954 28.4692 20.1868 28.5439 19.7824 28.6425C19.2006 28.7636 18.5927 28.9487 17.9981 28.979C16.8005 29.0404 15.5739 28.966 14.3924 28.7698C13.7713 28.6928 13.1865 28.2554 12.6468 28.0748C11.2812 27.6182 9.9838 26.9702 8.88262 26.0069C7.30084 24.6232 5.71815 22.9617 4.78876 21.0495C4.6252 20.713 4.41897 20.365 4.29768 20.0056C3.97348 18.8325 3.59969 17.6949 3.54374 16.4685C3.46997 14.8518 3.43531 13.2653 3.89987 11.6921C4.02754 11.2642 4.33201 10.8365 4.51247 10.4221C4.65325 10.0988 4.79365 9.7649 4.9563 9.45216C5.47641 8.62924 6.04583 7.83707 6.71743 7.13026C6.80807 7.04523 6.9331 6.86377 7.03092 6.80045C7.58915 6.43916 7.98149 5.88218 8.51442 5.49233C9.59894 4.69902 10.9153 4.07679 12.1917 3.66312C12.6069 3.53238 13.0891 3.51191 13.5013 3.39235C14.6156 3.06905 15.6374 3.07607 16.7798 3.01049Z" fill="url(#paint1_linear_450_40)"/>
<defs>
<linearGradient id="paint0_linear_450_40" x1="-5.3335" y1="2.66667" x2="31.9998" y2="32" gradientUnits="userSpaceOnUse">
<stop stop-color="#F6F9FF"/>
<stop offset="1" stop-color="#F0F5FF"/>
</linearGradient>
<linearGradient id="paint1_linear_450_40" x1="16" y1="3" x2="16" y2="29" gradientUnits="userSpaceOnUse">
<stop stop-color="#1B2A4A"/>
<stop offset="1" stop-color="#06B6D4"/>
</linearGradient>
</defs>
</svg>
